<?xml version="1.0" encoding="UTF-8"?>
<svg width="100px" height="100px" viewBox="0 0 100 100" version="1.1" xmlns="http://www.w3.org/2000/svg" xmlns:xlink="http://www.w3.org/1999/xlink">
    <title>leftArrow</title>
    <g id="leftArrow" stroke="none" stroke-width="1" fill="none" fill-rule="evenodd">
        <g id="left-arrow" transform="translate(26.000000, 31.000000)" fill="#000000" fill-rule="nonzero">
            <path d="M43.7451581,22.3159075 L4.94744226,22.3159075 C3.14946758,22.3159075 1.69260033,20.8317215 1.69260033,19.0000317 C1.69260033,17.1683419 3.14946758,15.6841559 4.94744226,15.6841559 L43.7451581,15.6841559 C45.5431328,15.6841559 47,17.1683419 47,19.0000317 C47,20.8317215 45.5431328,22.3159075 43.7451581,22.3159075 Z" id="Path"></path>
            <path d="M19.8533164,38 C19.0617388,38 18.2675574,37.7068766 17.6413258,37.1153243 L1.04163195,21.4312319 C0.372436445,20.7985628 -0.00642715585,19.9085817 0,18.9774838 C0.00659221187,18.0477122 0.395871307,17.1617102 1.07418036,16.5383255 L18.1295521,0.854233064 C19.4640373,-0.372640978 21.5223993,-0.265206602 22.7266908,1.09430247 C23.9309823,2.45381154 23.8255255,4.55077139 22.4910403,5.77764544 L8.07599633,19.0331905 L22.0679108,32.2529241 C23.3854708,33.498367 23.463587,35.5966532 22.2410684,36.9389197 C21.5992136,37.6432118 20.7282179,38 19.8533164,38 Z" id="Path"></path>
        </g>
    </g>
</svg>